{
	"asset":{
		"generator":"Khronos glTF Blender I/O v4.1.63",
		"version":"2.0"
	},
	"extensionsUsed":[
		"KHR_materials_unlit"
	],
	"scene":0,
	"scenes":[
		{
			"name":"Scene",
			"nodes":[
				0
			]
		}
	],
	"nodes":[
		{
			"mesh":0,
			"name":"Cube"
		}
	],
	"materials":[
		{
			"doubleSided":true,
			"extensions":{
				"KHR_materials_unlit":{}
			},
			"name":"Concrete",
			"pbrMetallicRoughness":{
				"baseColorFactor":[
					0.20863322913646698,
					0.19806824624538422,
					0.19120413064956665,
					1
				],
				"metallicFactor":0,
				"roughnessFactor":0.9
			}
		},
		{
			"doubleSided":true,
			"extensions":{
				"KHR_materials_unlit":{}
			},
			"name":"Alert",
			"pbrMetallicRoughness":{
				"baseColorFactor":[
					0.4793117642402649,
					0.24227915704250336,
					0,
					1
				],
				"metallicFactor":0,
				"roughnessFactor":0.9
			}
		},
		{
			"doubleSided":true,
			"extensions":{
				"KHR_materials_unlit":{}
			},
			"name":"High_Alert",
			"pbrMetallicRoughness":{
				"baseColorFactor":[
					1.0000240802764893,
					0.450778603553772,
					0.03433933109045029,
					1
				],
				"metallicFactor":0,
				"roughnessFactor":0.9
			}
		},
		{
			"doubleSided":true,
			"extensions":{
				"KHR_materials_unlit":{}
			},
			"name":"High_Concrete",
			"pbrMetallicRoughness":{
				"baseColorFactor":[
					0.300746351480484,
					0.300746351480484,
					0.300746351480484,
					1
				],
				"metallicFactor":0,
				"roughnessFactor":0.9
			}
		},
		{
			"doubleSided":true,
			"extensions":{
				"KHR_materials_unlit":{}
			},
			"name":"Alert_Dark",
			"pbrMetallicRoughness":{
				"baseColorFactor":[
					0.31880679726600647,
					0.14045403897762299,
					0,
					1
				],
				"metallicFactor":0,
				"roughnessFactor":0.9
			}
		}
	],
	"meshes":[
		{
			"name":"Cube",
			"primitives":[
				{
					"attributes":{
						"POSITION":0,
						"NORMAL":1,
						"TEXCOORD_0":2
					},
					"indices":3,
					"material":0
				},
				{
					"attributes":{
						"POSITION":4,
						"NORMAL":5,
						"TEXCOORD_0":6
					},
					"indices":7,
					"material":1
				},
				{
					"attributes":{
						"POSITION":8,
						"NORMAL":9,
						"TEXCOORD_0":10
					},
					"indices":11,
					"material":2
				},
				{
					"attributes":{
						"POSITION":12,
						"NORMAL":13,
						"TEXCOORD_0":14
					},
					"indices":15,
					"material":3
				},
				{
					"attributes":{
						"POSITION":16,
						"NORMAL":17,
						"TEXCOORD_0":18
					},
					"indices":19,
					"material":4
				}
			]
		}
	],
	"accessors":[
		{
			"bufferView":0,
			"componentType":5126,
			"count":52,
			"max":[
				1,
				0.8557271957397461,
				0.33070433139801025
			],
			"min":[
				-1,
				0.016636133193969727,
				-0.3375939726829529
			],
			"type":"VEC3"
		},
		{
			"bufferView":1,
			"componentType":5126,
			"count":52,
			"type":"VEC3"
		},
		{
			"bufferView":2,
			"componentType":5126,
			"count":52,
			"type":"VEC2"
		},
		{
			"bufferView":3,
			"componentType":5123,
			"count":114,
			"type":"SCALAR"
		},
		{
			"bufferView":4,
			"componentType":5126,
			"count":12,
			"max":[
				1,
				1.524733066558838,
				0.19416199624538422
			],
			"min":[
				-1,
				0.8557271957397461,
				-0.20105163753032684
			],
			"type":"VEC3"
		},
		{
			"bufferView":5,
			"componentType":5126,
			"count":12,
			"type":"VEC3"
		},
		{
			"bufferView":6,
			"componentType":5126,
			"count":12,
			"type":"VEC2"
		},
		{
			"bufferView":7,
			"componentType":5123,
			"count":18,
			"type":"SCALAR"
		},
		{
			"bufferView":8,
			"componentType":5126,
			"count":8,
			"max":[
				1,
				1.524733066558838,
				0.19416199624538422
			],
			"min":[
				-1,
				1.4817144870758057,
				-0.20105163753032684
			],
			"type":"VEC3"
		},
		{
			"bufferView":9,
			"componentType":5126,
			"count":8,
			"type":"VEC3"
		},
		{
			"bufferView":10,
			"componentType":5126,
			"count":8,
			"type":"VEC2"
		},
		{
			"bufferView":11,
			"componentType":5123,
			"count":12,
			"type":"SCALAR"
		},
		{
			"bufferView":12,
			"componentType":5126,
			"count":16,
			"max":[
				1,
				0.8557271957397461,
				0.33070433139801025
			],
			"min":[
				-1,
				0.2531449794769287,
				-0.3375939726829529
			],
			"type":"VEC3"
		},
		{
			"bufferView":13,
			"componentType":5126,
			"count":16,
			"type":"VEC3"
		},
		{
			"bufferView":14,
			"componentType":5126,
			"count":16,
			"type":"VEC2"
		},
		{
			"bufferView":15,
			"componentType":5123,
			"count":24,
			"type":"SCALAR"
		},
		{
			"bufferView":16,
			"componentType":5126,
			"count":16,
			"max":[
				1,
				1.524733066558838,
				0.19416199624538422
			],
			"min":[
				-1,
				0.7823173999786377,
				-0.20105163753032684
			],
			"type":"VEC3"
		},
		{
			"bufferView":17,
			"componentType":5126,
			"count":16,
			"type":"VEC3"
		},
		{
			"bufferView":18,
			"componentType":5126,
			"count":16,
			"type":"VEC2"
		},
		{
			"bufferView":19,
			"componentType":5123,
			"count":36,
			"type":"SCALAR"
		}
	],
	"bufferViews":[
		{
			"buffer":0,
			"byteLength":624,
			"byteOffset":0,
			"target":34962
		},
		{
			"buffer":0,
			"byteLength":624,
			"byteOffset":624,
			"target":34962
		},
		{
			"buffer":0,
			"byteLength":416,
			"byteOffset":1248,
			"target":34962
		},
		{
			"buffer":0,
			"byteLength":228,
			"byteOffset":1664,
			"target":34963
		},
		{
			"buffer":0,
			"byteLength":144,
			"byteOffset":1892,
			"target":34962
		},
		{
			"buffer":0,
			"byteLength":144,
			"byteOffset":2036,
			"target":34962
		},
		{
			"buffer":0,
			"byteLength":96,
			"byteOffset":2180,
			"target":34962
		},
		{
			"buffer":0,
			"byteLength":36,
			"byteOffset":2276,
			"target":34963
		},
		{
			"buffer":0,
			"byteLength":96,
			"byteOffset":2312,
			"target":34962
		},
		{
			"buffer":0,
			"byteLength":96,
			"byteOffset":2408,
			"target":34962
		},
		{
			"buffer":0,
			"byteLength":64,
			"byteOffset":2504,
			"target":34962
		},
		{
			"buffer":0,
			"byteLength":24,
			"byteOffset":2568,
			"target":34963
		},
		{
			"buffer":0,
			"byteLength":192,
			"byteOffset":2592,
			"target":34962
		},
		{
			"buffer":0,
			"byteLength":192,
			"byteOffset":2784,
			"target":34962
		},
		{
			"buffer":0,
			"byteLength":128,
			"byteOffset":2976,
			"target":34962
		},
		{
			"buffer":0,
			"byteLength":48,
			"byteOffset":3104,
			"target":34963
		},
		{
			"buffer":0,
			"byteLength":192,
			"byteOffset":3152,
			"target":34962
		},
		{
			"buffer":0,
			"byteLength":192,
			"byteOffset":3344,
			"target":34962
		},
		{
			"buffer":0,
			"byteLength":128,
			"byteOffset":3536,
			"target":34962
		},
		{
			"buffer":0,
			"byteLength":72,
			"byteOffset":3664,
			"target":34963
		}
	],
	"buffers":[
		{
			"byteLength":3736,
			"uri":"data:application/octet-stream;base64,"
		}
	]
}
