{
	"asset":{
		"generator":"Khronos glTF Blender I/O v4.1.63",
		"version":"2.0"
	},
	"extensionsUsed":[
		"KHR_materials_unlit"
	],
	"scene":0,
	"scenes":[
		{
			"name":"Scene",
			"nodes":[
				0
			]
		}
	],
	"nodes":[
		{
			"mesh":0,
			"name":"Signs"
		}
	],
	"materials":[
		{
			"doubleSided":true,
			"extensions":{
				"KHR_materials_unlit":{}
			},
			"name":"Pipe_Base",
			"pbrMetallicRoughness":{
				"baseColorFactor":[
					0.4998963177204132,
					0.4998963177204132,
					0.4998963177204132,
					1
				],
				"metallicFactor":0,
				"roughnessFactor":0.9
			}
		},
		{
			"doubleSided":true,
			"extensions":{
				"KHR_materials_unlit":{}
			},
			"name":"Pipe_shade",
			"pbrMetallicRoughness":{
				"baseColorFactor":[
					0.10878913104534149,
					0.09846252202987671,
					0.10082453489303589,
					1
				],
				"metallicFactor":0,
				"roughnessFactor":0.9
			}
		},
		{
			"doubleSided":true,
			"extensions":{
				"KHR_materials_unlit":{}
			},
			"name":"Pipe_Dark",
			"pbrMetallicRoughness":{
				"baseColorFactor":[
					0.05087645351886749,
					0.03954122215509415,
					0.04121679067611694,
					1
				],
				"metallicFactor":0,
				"roughnessFactor":0.9
			}
		},
		{
			"doubleSided":true,
			"extensions":{
				"KHR_materials_unlit":{}
			},
			"name":"Sign",
			"pbrMetallicRoughness":{
				"baseColorFactor":[
					0.005778137128800154,
					0.16970694065093994,
					0.04820658266544342,
					1
				],
				"metallicFactor":0,
				"roughnessFactor":0.9
			}
		},
		{
			"doubleSided":true,
			"extensions":{
				"KHR_materials_unlit":{}
			},
			"name":"Letters",
			"pbrMetallicRoughness":{
				"baseColorFactor":[
					0.8167235255241394,
					0.7349567413330078,
					1,
					1
				],
				"metallicFactor":0,
				"roughnessFactor":0.9
			}
		},
		{
			"doubleSided":true,
			"extensions":{
				"KHR_materials_unlit":{}
			},
			"name":"Back",
			"pbrMetallicRoughness":{
				"baseColorFactor":[
					0.106840580701828,
					0.15377429127693176,
					0.24693582952022552,
					1
				],
				"metallicFactor":0,
				"roughnessFactor":0.9
			}
		}
	],
	"meshes":[
		{
			"name":"Cylinder.002",
			"primitives":[
				{
					"attributes":{
						"POSITION":0,
						"NORMAL":1,
						"TEXCOORD_0":2
					},
					"indices":3,
					"material":0
				},
				{
					"attributes":{
						"POSITION":4,
						"NORMAL":5,
						"TEXCOORD_0":6
					},
					"indices":7,
					"material":1
				},
				{
					"attributes":{
						"POSITION":8,
						"NORMAL":9,
						"TEXCOORD_0":10
					},
					"indices":11,
					"material":2
				},
				{
					"attributes":{
						"POSITION":12,
						"NORMAL":13,
						"TEXCOORD_0":14
					},
					"indices":15,
					"material":3
				},
				{
					"attributes":{
						"POSITION":16,
						"NORMAL":17,
						"TEXCOORD_0":18
					},
					"indices":19,
					"material":4
				},
				{
					"attributes":{
						"POSITION":20,
						"NORMAL":21,
						"TEXCOORD_0":22
					},
					"indices":23,
					"material":5
				}
			]
		}
	],
	"accessors":[
		{
			"bufferView":0,
			"componentType":5126,
			"count":480,
			"max":[
				24.75856590270996,
				19.18490982055664,
				36.9884147644043
			],
			"min":[
				-25.647445678710938,
				0.013064384460449219,
				-35.9321174621582
			],
			"type":"VEC3"
		},
		{
			"bufferView":1,
			"componentType":5126,
			"count":480,
			"type":"VEC3"
		},
		{
			"bufferView":2,
			"componentType":5126,
			"count":480,
			"type":"VEC2"
		},
		{
			"bufferView":3,
			"componentType":5123,
			"count":918,
			"type":"SCALAR"
		},
		{
			"bufferView":4,
			"componentType":5126,
			"count":328,
			"max":[
				24.75856590270996,
				19.18490982055664,
				36.84676742553711
			],
			"min":[
				-25.647445678710938,
				0.013064384460449219,
				-35.78567123413086
			],
			"type":"VEC3"
		},
		{
			"bufferView":5,
			"componentType":5126,
			"count":328,
			"type":"VEC3"
		},
		{
			"bufferView":6,
			"componentType":5126,
			"count":328,
			"type":"VEC2"
		},
		{
			"bufferView":7,
			"componentType":5123,
			"count":510,
			"type":"SCALAR"
		},
		{
			"bufferView":8,
			"componentType":5126,
			"count":371,
			"max":[
				24.612119674682617,
				18.944324493408203,
				36.9884147644043
			],
			"min":[
				-25.647445678710938,
				0.013064384460449219,
				-35.9321174621582
			],
			"type":"VEC3"
		},
		{
			"bufferView":9,
			"componentType":5126,
			"count":371,
			"type":"VEC3"
		},
		{
			"bufferView":10,
			"componentType":5126,
			"count":371,
			"type":"VEC2"
		},
		{
			"bufferView":11,
			"componentType":5123,
			"count":612,
			"type":"SCALAR"
		},
		{
			"bufferView":12,
			"componentType":5126,
			"count":224,
			"max":[
				15.613242149353027,
				19.42769432067871,
				-35.1245002746582
			],
			"min":[
				-15.585956573486328,
				15.616204261779785,
				-35.739742279052734
			],
			"type":"VEC3"
		},
		{
			"bufferView":13,
			"componentType":5126,
			"count":224,
			"type":"VEC3"
		},
		{
			"bufferView":14,
			"componentType":5126,
			"count":224,
			"type":"VEC2"
		},
		{
			"bufferView":15,
			"componentType":5123,
			"count":636,
			"type":"SCALAR"
		},
		{
			"bufferView":16,
			"componentType":5126,
			"count":48,
			"max":[
				15.249152183532715,
				19.213939666748047,
				-35.1245002746582
			],
			"min":[
				-15.221866607666016,
				15.79709529876709,
				-35.739742279052734
			],
			"type":"VEC3"
		},
		{
			"bufferView":17,
			"componentType":5126,
			"count":48,
			"type":"VEC3"
		},
		{
			"bufferView":18,
			"componentType":5126,
			"count":48,
			"type":"VEC2"
		},
		{
			"bufferView":19,
			"componentType":5123,
			"count":72,
			"type":"SCALAR"
		},
		{
			"bufferView":20,
			"componentType":5126,
			"count":126,
			"max":[
				15.613242149353027,
				19.42769432067871,
				-35.2978401184082
			],
			"min":[
				-15.585956573486328,
				15.616204261779785,
				-35.566402435302734
			],
			"type":"VEC3"
		},
		{
			"bufferView":21,
			"componentType":5126,
			"count":126,
			"type":"VEC3"
		},
		{
			"bufferView":22,
			"componentType":5126,
			"count":126,
			"type":"VEC2"
		},
		{
			"bufferView":23,
			"componentType":5123,
			"count":468,
			"type":"SCALAR"
		}
	],
	"bufferViews":[
		{
			"buffer":0,
			"byteLength":5760,
			"byteOffset":0,
			"target":34962
		},
		{
			"buffer":0,
			"byteLength":5760,
			"byteOffset":5760,
			"target":34962
		},
		{
			"buffer":0,
			"byteLength":3840,
			"byteOffset":11520,
			"target":34962
		},
		{
			"buffer":0,
			"byteLength":1836,
			"byteOffset":15360,
			"target":34963
		},
		{
			"buffer":0,
			"byteLength":3936,
			"byteOffset":17196,
			"target":34962
		},
		{
			"buffer":0,
			"byteLength":3936,
			"byteOffset":21132,
			"target":34962
		},
		{
			"buffer":0,
			"byteLength":2624,
			"byteOffset":25068,
			"target":34962
		},
		{
			"buffer":0,
			"byteLength":1020,
			"byteOffset":27692,
			"target":34963
		},
		{
			"buffer":0,
			"byteLength":4452,
			"byteOffset":28712,
			"target":34962
		},
		{
			"buffer":0,
			"byteLength":4452,
			"byteOffset":33164,
			"target":34962
		},
		{
			"buffer":0,
			"byteLength":2968,
			"byteOffset":37616,
			"target":34962
		},
		{
			"buffer":0,
			"byteLength":1224,
			"byteOffset":40584,
			"target":34963
		},
		{
			"buffer":0,
			"byteLength":2688,
			"byteOffset":41808,
			"target":34962
		},
		{
			"buffer":0,
			"byteLength":2688,
			"byteOffset":44496,
			"target":34962
		},
		{
			"buffer":0,
			"byteLength":1792,
			"byteOffset":47184,
			"target":34962
		},
		{
			"buffer":0,
			"byteLength":1272,
			"byteOffset":48976,
			"target":34963
		},
		{
			"buffer":0,
			"byteLength":576,
			"byteOffset":50248,
			"target":34962
		},
		{
			"buffer":0,
			"byteLength":576,
			"byteOffset":50824,
			"target":34962
		},
		{
			"buffer":0,
			"byteLength":384,
			"byteOffset":51400,
			"target":34962
		},
		{
			"buffer":0,
			"byteLength":144,
			"byteOffset":51784,
			"target":34963
		},
		{
			"buffer":0,
			"byteLength":1512,
			"byteOffset":51928,
			"target":34962
		},
		{
			"buffer":0,
			"byteLength":1512,
			"byteOffset":53440,
			"target":34962
		},
		{
			"buffer":0,
			"byteLength":1008,
			"byteOffset":54952,
			"target":34962
		},
		{
			"buffer":0,
			"byteLength":936,
			"byteOffset":55960,
			"target":34963
		}
	],
	"buffers":[
		{
			"byteLength":56896,
			"uri":"data:application/octet-stream;base64,"
		}
	]
}
