{
	"asset":{
		"generator":"Khronos glTF Blender I/O v4.1.63",
		"version":"2.0"
	},
	"extensionsUsed":[
		"KHR_materials_unlit"
	],
	"scene":0,
	"scenes":[
		{
			"name":"Scene",
			"nodes":[
				0
			]
		}
	],
	"nodes":[
		{
			"mesh":0,
			"name":"Car_1",
			"translation":[
				0,
				1.348242998123169,
				0.09257925301790237
			]
		}
	],
	"materials":[
		{
			"doubleSided":true,
			"extensions":{
				"KHR_materials_unlit":{}
			},
			"name":"Burnt_Base",
			"pbrMetallicRoughness":{
				"baseColorFactor":[
					0.13286758959293365,
					0.061246108263731,
					0.02518688142299652,
					1
				],
				"metallicFactor":0,
				"roughnessFactor":0.9
			}
		},
		{
			"doubleSided":true,
			"extensions":{
				"KHR_materials_unlit":{}
			},
			"name":"Dark_Shade",
			"pbrMetallicRoughness":{
				"baseColorFactor":[
					0.035601139068603516,
					0.009134065359830856,
					0.002428218722343445,
					1
				],
				"metallicFactor":0,
				"roughnessFactor":0.9
			}
		},
		{
			"doubleSided":true,
			"extensions":{
				"KHR_materials_unlit":{}
			},
			"name":"Burnt_High",
			"pbrMetallicRoughness":{
				"baseColorFactor":[
					0.1682683378458023,
					0.1412634551525116,
					0.08650051057338715,
					1
				],
				"metallicFactor":0,
				"roughnessFactor":0.9
			}
		},
		{
			"doubleSided":true,
			"extensions":{
				"KHR_materials_unlit":{}
			},
			"name":"Burnt_Mid",
			"pbrMetallicRoughness":{
				"baseColorFactor":[
					0.1022411361336708,
					0.04817187786102295,
					0.029556861147284508,
					1
				],
				"metallicFactor":0,
				"roughnessFactor":0.9
			}
		}
	],
	"meshes":[
		{
			"name":"Plane",
			"primitives":[
				{
					"attributes":{
						"POSITION":0,
						"NORMAL":1,
						"TEXCOORD_0":2
					},
					"indices":3,
					"material":0
				},
				{
					"attributes":{
						"POSITION":4,
						"NORMAL":5,
						"TEXCOORD_0":6
					},
					"indices":7,
					"material":1
				},
				{
					"attributes":{
						"POSITION":8,
						"NORMAL":9,
						"TEXCOORD_0":10
					},
					"indices":11,
					"material":2
				},
				{
					"attributes":{
						"POSITION":12,
						"NORMAL":13,
						"TEXCOORD_0":14
					},
					"indices":15,
					"material":3
				}
			]
		}
	],
	"accessors":[
		{
			"bufferView":0,
			"componentType":5126,
			"count":623,
			"max":[
				2.035374879837036,
				2.051682472229004,
				4.970850467681885
			],
			"min":[
				-2.0353753566741943,
				-1.3285008668899536,
				-4.648609161376953
			],
			"type":"VEC3"
		},
		{
			"bufferView":1,
			"componentType":5126,
			"count":623,
			"type":"VEC3"
		},
		{
			"bufferView":2,
			"componentType":5126,
			"count":623,
			"type":"VEC2"
		},
		{
			"bufferView":3,
			"componentType":5123,
			"count":1122,
			"type":"SCALAR"
		},
		{
			"bufferView":4,
			"componentType":5126,
			"count":320,
			"max":[
				2.035374879837036,
				2.051682472229004,
				4.564235687255859
			],
			"min":[
				-2.0353753566741943,
				-1.3285008668899536,
				-4.518457889556885
			],
			"type":"VEC3"
		},
		{
			"bufferView":5,
			"componentType":5126,
			"count":320,
			"type":"VEC3"
		},
		{
			"bufferView":6,
			"componentType":5126,
			"count":320,
			"type":"VEC2"
		},
		{
			"bufferView":7,
			"componentType":5123,
			"count":642,
			"type":"SCALAR"
		},
		{
			"bufferView":8,
			"componentType":5126,
			"count":90,
			"max":[
				2.035374879837036,
				2.051682472229004,
				4.813648700714111
			],
			"min":[
				-2.0353753566741943,
				-0.8242164850234985,
				-4.648609161376953
			],
			"type":"VEC3"
		},
		{
			"bufferView":9,
			"componentType":5126,
			"count":90,
			"type":"VEC3"
		},
		{
			"bufferView":10,
			"componentType":5126,
			"count":90,
			"type":"VEC2"
		},
		{
			"bufferView":11,
			"componentType":5123,
			"count":150,
			"type":"SCALAR"
		},
		{
			"bufferView":12,
			"componentType":5126,
			"count":241,
			"max":[
				2.035374879837036,
				2.051682472229004,
				4.970850467681885
			],
			"min":[
				-2.0353753566741943,
				-1.328216552734375,
				-4.648609161376953
			],
			"type":"VEC3"
		},
		{
			"bufferView":13,
			"componentType":5126,
			"count":241,
			"type":"VEC3"
		},
		{
			"bufferView":14,
			"componentType":5126,
			"count":241,
			"type":"VEC2"
		},
		{
			"bufferView":15,
			"componentType":5123,
			"count":378,
			"type":"SCALAR"
		}
	],
	"bufferViews":[
		{
			"buffer":0,
			"byteLength":7476,
			"byteOffset":0,
			"target":34962
		},
		{
			"buffer":0,
			"byteLength":7476,
			"byteOffset":7476,
			"target":34962
		},
		{
			"buffer":0,
			"byteLength":4984,
			"byteOffset":14952,
			"target":34962
		},
		{
			"buffer":0,
			"byteLength":2244,
			"byteOffset":19936,
			"target":34963
		},
		{
			"buffer":0,
			"byteLength":3840,
			"byteOffset":22180,
			"target":34962
		},
		{
			"buffer":0,
			"byteLength":3840,
			"byteOffset":26020,
			"target":34962
		},
		{
			"buffer":0,
			"byteLength":2560,
			"byteOffset":29860,
			"target":34962
		},
		{
			"buffer":0,
			"byteLength":1284,
			"byteOffset":32420,
			"target":34963
		},
		{
			"buffer":0,
			"byteLength":1080,
			"byteOffset":33704,
			"target":34962
		},
		{
			"buffer":0,
			"byteLength":1080,
			"byteOffset":34784,
			"target":34962
		},
		{
			"buffer":0,
			"byteLength":720,
			"byteOffset":35864,
			"target":34962
		},
		{
			"buffer":0,
			"byteLength":300,
			"byteOffset":36584,
			"target":34963
		},
		{
			"buffer":0,
			"byteLength":2892,
			"byteOffset":36884,
			"target":34962
		},
		{
			"buffer":0,
			"byteLength":2892,
			"byteOffset":39776,
			"target":34962
		},
		{
			"buffer":0,
			"byteLength":1928,
			"byteOffset":42668,
			"target":34962
		},
		{
			"buffer":0,
			"byteLength":756,
			"byteOffset":44596,
			"target":34963
		}
	],
	"buffers":[
		{
			"byteLength":45352,
			"uri":"data:application/octet-stream;base64,"
		}
	]
}
