{
	"asset":{
		"generator":"Khronos glTF Blender I/O v4.1.63",
		"version":"2.0"
	},
	"extensionsUsed":[
		"KHR_materials_unlit"
	],
	"scene":0,
	"scenes":[
		{
			"name":"Scene",
			"nodes":[
				0
			]
		}
	],
	"nodes":[
		{
			"mesh":0,
			"name":"Car_2",
			"translation":[
				0,
				1.2799174785614014,
				-0.007121086120605469
			]
		}
	],
	"materials":[
		{
			"doubleSided":true,
			"extensions":{
				"KHR_materials_unlit":{}
			},
			"name":"Dark_Shade",
			"pbrMetallicRoughness":{
				"baseColorFactor":[
					0.035601139068603516,
					0.009134065359830856,
					0.002428218722343445,
					1
				],
				"metallicFactor":0,
				"roughnessFactor":0.9
			}
		},
		{
			"doubleSided":true,
			"extensions":{
				"KHR_materials_unlit":{}
			},
			"name":"Burnt_Base",
			"pbrMetallicRoughness":{
				"baseColorFactor":[
					0.13286758959293365,
					0.061246108263731,
					0.02518688142299652,
					1
				],
				"metallicFactor":0,
				"roughnessFactor":0.9
			}
		},
		{
			"doubleSided":true,
			"extensions":{
				"KHR_materials_unlit":{}
			},
			"name":"Burnt_High",
			"pbrMetallicRoughness":{
				"baseColorFactor":[
					0.1682683378458023,
					0.1412634551525116,
					0.08650051057338715,
					1
				],
				"metallicFactor":0,
				"roughnessFactor":0.9
			}
		},
		{
			"doubleSided":true,
			"extensions":{
				"KHR_materials_unlit":{}
			},
			"name":"Burnt_Mid",
			"pbrMetallicRoughness":{
				"baseColorFactor":[
					0.1022411361336708,
					0.04817187786102295,
					0.029556861147284508,
					1
				],
				"metallicFactor":0,
				"roughnessFactor":0.9
			}
		}
	],
	"meshes":[
		{
			"name":"Plane.001",
			"primitives":[
				{
					"attributes":{
						"POSITION":0,
						"NORMAL":1,
						"TEXCOORD_0":2
					},
					"indices":3,
					"material":0
				},
				{
					"attributes":{
						"POSITION":4,
						"NORMAL":5,
						"TEXCOORD_0":6
					},
					"indices":7,
					"material":1
				},
				{
					"attributes":{
						"POSITION":8,
						"NORMAL":9,
						"TEXCOORD_0":10
					},
					"indices":11,
					"material":2
				},
				{
					"attributes":{
						"POSITION":12,
						"NORMAL":13,
						"TEXCOORD_0":14
					},
					"indices":15,
					"material":3
				}
			]
		}
	],
	"accessors":[
		{
			"bufferView":0,
			"componentType":5126,
			"count":872,
			"max":[
				2.035374879837036,
				2.1200079917907715,
				4.933570861816406
			],
			"min":[
				-2.0353753566741943,
				-1.2601754665374756,
				-4.685888767242432
			],
			"type":"VEC3"
		},
		{
			"bufferView":1,
			"componentType":5126,
			"count":872,
			"type":"VEC3"
		},
		{
			"bufferView":2,
			"componentType":5126,
			"count":872,
			"type":"VEC2"
		},
		{
			"bufferView":3,
			"componentType":5123,
			"count":1701,
			"type":"SCALAR"
		},
		{
			"bufferView":4,
			"componentType":5126,
			"count":118,
			"max":[
				2.035374879837036,
				2.1200079917907715,
				4.776369094848633
			],
			"min":[
				-2.017181634902954,
				-1.2601754665374756,
				-4.685888767242432
			],
			"type":"VEC3"
		},
		{
			"bufferView":5,
			"componentType":5126,
			"count":118,
			"type":"VEC3"
		},
		{
			"bufferView":6,
			"componentType":5126,
			"count":118,
			"type":"VEC2"
		},
		{
			"bufferView":7,
			"componentType":5123,
			"count":207,
			"type":"SCALAR"
		},
		{
			"bufferView":8,
			"componentType":5126,
			"count":84,
			"max":[
				2.017181158065796,
				2.1200079917907715,
				3.764110565185547
			],
			"min":[
				-2.017181634902954,
				-0.46285825967788696,
				-4.619624137878418
			],
			"type":"VEC3"
		},
		{
			"bufferView":9,
			"componentType":5126,
			"count":84,
			"type":"VEC3"
		},
		{
			"bufferView":10,
			"componentType":5126,
			"count":84,
			"type":"VEC2"
		},
		{
			"bufferView":11,
			"componentType":5123,
			"count":156,
			"type":"SCALAR"
		},
		{
			"bufferView":12,
			"componentType":5126,
			"count":55,
			"max":[
				2.035374879837036,
				2.1200079917907715,
				4.573535919189453
			],
			"min":[
				-1.6075605154037476,
				-1.259891152381897,
				-4.685888767242432
			],
			"type":"VEC3"
		},
		{
			"bufferView":13,
			"componentType":5126,
			"count":55,
			"type":"VEC3"
		},
		{
			"bufferView":14,
			"componentType":5126,
			"count":55,
			"type":"VEC2"
		},
		{
			"bufferView":15,
			"componentType":5123,
			"count":84,
			"type":"SCALAR"
		}
	],
	"bufferViews":[
		{
			"buffer":0,
			"byteLength":10464,
			"byteOffset":0,
			"target":34962
		},
		{
			"buffer":0,
			"byteLength":10464,
			"byteOffset":10464,
			"target":34962
		},
		{
			"buffer":0,
			"byteLength":6976,
			"byteOffset":20928,
			"target":34962
		},
		{
			"buffer":0,
			"byteLength":3402,
			"byteOffset":27904,
			"target":34963
		},
		{
			"buffer":0,
			"byteLength":1416,
			"byteOffset":31308,
			"target":34962
		},
		{
			"buffer":0,
			"byteLength":1416,
			"byteOffset":32724,
			"target":34962
		},
		{
			"buffer":0,
			"byteLength":944,
			"byteOffset":34140,
			"target":34962
		},
		{
			"buffer":0,
			"byteLength":414,
			"byteOffset":35084,
			"target":34963
		},
		{
			"buffer":0,
			"byteLength":1008,
			"byteOffset":35500,
			"target":34962
		},
		{
			"buffer":0,
			"byteLength":1008,
			"byteOffset":36508,
			"target":34962
		},
		{
			"buffer":0,
			"byteLength":672,
			"byteOffset":37516,
			"target":34962
		},
		{
			"buffer":0,
			"byteLength":312,
			"byteOffset":38188,
			"target":34963
		},
		{
			"buffer":0,
			"byteLength":660,
			"byteOffset":38500,
			"target":34962
		},
		{
			"buffer":0,
			"byteLength":660,
			"byteOffset":39160,
			"target":34962
		},
		{
			"buffer":0,
			"byteLength":440,
			"byteOffset":39820,
			"target":34962
		},
		{
			"buffer":0,
			"byteLength":168,
			"byteOffset":40260,
			"target":34963
		}
	],
	"buffers":[
		{
			"byteLength":40428,
			"uri":"data:application/octet-stream;base64,"
		}
	]
}
