{
	"asset":{
		"generator":"Khronos glTF Blender I/O v4.1.63",
		"version":"2.0"
	},
	"extensionsUsed":[
		"KHR_materials_unlit"
	],
	"scene":0,
	"scenes":[
		{
			"name":"Scene",
			"nodes":[
				0
			]
		}
	],
	"nodes":[
		{
			"mesh":0,
			"name":"Car_3",
			"translation":[
				0,
				1.3108980655670166,
				0.03664970397949219
			]
		}
	],
	"materials":[
		{
			"doubleSided":true,
			"extensions":{
				"KHR_materials_unlit":{}
			},
			"name":"Dark_Shade",
			"pbrMetallicRoughness":{
				"baseColorFactor":[
					0.035601139068603516,
					0.009134065359830856,
					0.002428218722343445,
					1
				],
				"metallicFactor":0,
				"roughnessFactor":0.9
			}
		},
		{
			"doubleSided":true,
			"extensions":{
				"KHR_materials_unlit":{}
			},
			"name":"Burnt_Mid",
			"pbrMetallicRoughness":{
				"baseColorFactor":[
					0.1022411361336708,
					0.04817187786102295,
					0.029556861147284508,
					1
				],
				"metallicFactor":0,
				"roughnessFactor":0.9
			}
		},
		{
			"doubleSided":true,
			"extensions":{
				"KHR_materials_unlit":{}
			},
			"name":"Burnt_High",
			"pbrMetallicRoughness":{
				"baseColorFactor":[
					0.1682683378458023,
					0.1412634551525116,
					0.08650051057338715,
					1
				],
				"metallicFactor":0,
				"roughnessFactor":0.9
			}
		},
		{
			"doubleSided":true,
			"extensions":{
				"KHR_materials_unlit":{}
			},
			"name":"Burnt_Base",
			"pbrMetallicRoughness":{
				"baseColorFactor":[
					0.13286758959293365,
					0.061246108263731,
					0.02518688142299652,
					1
				],
				"metallicFactor":0,
				"roughnessFactor":0.9
			}
		}
	],
	"meshes":[
		{
			"name":"Plane.002",
			"primitives":[
				{
					"attributes":{
						"POSITION":0,
						"NORMAL":1,
						"TEXCOORD_0":2
					},
					"indices":3,
					"material":0
				},
				{
					"attributes":{
						"POSITION":4,
						"NORMAL":5,
						"TEXCOORD_0":6
					},
					"indices":7,
					"material":1
				},
				{
					"attributes":{
						"POSITION":8,
						"NORMAL":9,
						"TEXCOORD_0":10
					},
					"indices":11,
					"material":2
				},
				{
					"attributes":{
						"POSITION":12,
						"NORMAL":13,
						"TEXCOORD_0":14
					},
					"indices":15,
					"material":3
				}
			]
		}
	],
	"accessors":[
		{
			"bufferView":0,
			"componentType":5126,
			"count":816,
			"max":[
				2.035374879837036,
				2.0431251525878906,
				5.268908500671387
			],
			"min":[
				-2.0353753566741943,
				-1.2911559343338013,
				-5.144517421722412
			],
			"type":"VEC3"
		},
		{
			"bufferView":1,
			"componentType":5126,
			"count":816,
			"type":"VEC3"
		},
		{
			"bufferView":2,
			"componentType":5126,
			"count":816,
			"type":"VEC2"
		},
		{
			"bufferView":3,
			"componentType":5123,
			"count":1515,
			"type":"SCALAR"
		},
		{
			"bufferView":4,
			"componentType":5126,
			"count":33,
			"max":[
				2.035374879837036,
				2.0431251525878906,
				4.661792278289795
			],
			"min":[
				-2.0353753566741943,
				-1.2758318185806274,
				-3.59730863571167
			],
			"type":"VEC3"
		},
		{
			"bufferView":5,
			"componentType":5126,
			"count":33,
			"type":"VEC3"
		},
		{
			"bufferView":6,
			"componentType":5126,
			"count":33,
			"type":"VEC2"
		},
		{
			"bufferView":7,
			"componentType":5123,
			"count":39,
			"type":"SCALAR"
		},
		{
			"bufferView":8,
			"componentType":5126,
			"count":104,
			"max":[
				2.035374879837036,
				2.0890274047851562,
				3.075652599334717
			],
			"min":[
				-2.0353753566741943,
				-0.7868715524673462,
				-5.078252792358398
			],
			"type":"VEC3"
		},
		{
			"bufferView":9,
			"componentType":5126,
			"count":104,
			"type":"VEC3"
		},
		{
			"bufferView":10,
			"componentType":5126,
			"count":104,
			"type":"VEC2"
		},
		{
			"bufferView":11,
			"componentType":5123,
			"count":186,
			"type":"SCALAR"
		},
		{
			"bufferView":12,
			"componentType":5126,
			"count":245,
			"max":[
				2.035374879837036,
				2.0890274047851562,
				5.268908500671387
			],
			"min":[
				-2.0353753566741943,
				-1.2911559343338013,
				-5.078252792358398
			],
			"type":"VEC3"
		},
		{
			"bufferView":13,
			"componentType":5126,
			"count":245,
			"type":"VEC3"
		},
		{
			"bufferView":14,
			"componentType":5126,
			"count":245,
			"type":"VEC2"
		},
		{
			"bufferView":15,
			"componentType":5123,
			"count":408,
			"type":"SCALAR"
		}
	],
	"bufferViews":[
		{
			"buffer":0,
			"byteLength":9792,
			"byteOffset":0,
			"target":34962
		},
		{
			"buffer":0,
			"byteLength":9792,
			"byteOffset":9792,
			"target":34962
		},
		{
			"buffer":0,
			"byteLength":6528,
			"byteOffset":19584,
			"target":34962
		},
		{
			"buffer":0,
			"byteLength":3030,
			"byteOffset":26112,
			"target":34963
		},
		{
			"buffer":0,
			"byteLength":396,
			"byteOffset":29144,
			"target":34962
		},
		{
			"buffer":0,
			"byteLength":396,
			"byteOffset":29540,
			"target":34962
		},
		{
			"buffer":0,
			"byteLength":264,
			"byteOffset":29936,
			"target":34962
		},
		{
			"buffer":0,
			"byteLength":78,
			"byteOffset":30200,
			"target":34963
		},
		{
			"buffer":0,
			"byteLength":1248,
			"byteOffset":30280,
			"target":34962
		},
		{
			"buffer":0,
			"byteLength":1248,
			"byteOffset":31528,
			"target":34962
		},
		{
			"buffer":0,
			"byteLength":832,
			"byteOffset":32776,
			"target":34962
		},
		{
			"buffer":0,
			"byteLength":372,
			"byteOffset":33608,
			"target":34963
		},
		{
			"buffer":0,
			"byteLength":2940,
			"byteOffset":33980,
			"target":34962
		},
		{
			"buffer":0,
			"byteLength":2940,
			"byteOffset":36920,
			"target":34962
		},
		{
			"buffer":0,
			"byteLength":1960,
			"byteOffset":39860,
			"target":34962
		},
		{
			"buffer":0,
			"byteLength":816,
			"byteOffset":41820,
			"target":34963
		}
	],
	"buffers":[
		{
			"byteLength":42636,
			"uri":"data:application/octet-stream;base64,"
		}
	]
}
