{
	"asset":{
		"generator":"Khronos glTF Blender I/O v3.5.30",
		"version":"2.0"
	},
	"extensionsUsed":[
		"KHR_materials_clearcoat",
		"KHR_materials_transmission",
		"KHR_materials_ior"
	],
	"scene":0,
	"scenes":[
		{
			"name":"Scene",
			"nodes":[
				0
			]
		}
	],
	"nodes":[
		{
			"mesh":0,
			"name":"Actual",
			"rotation":[
				0.7071068286895752,
				0,
				0,
				0.7071068286895752
			],
			"translation":[
				0,
				-0.34343719482421875,
				0
			]
		}
	],
	"materials":[
		{
			"doubleSided":true,
			"extensions":{
				"KHR_materials_clearcoat":{
					"clearcoatFactor":1,
					"clearcoatRoughnessFactor":0.029999999329447746
				}
			},
			"name":"car_paint",
			"pbrMetallicRoughness":{
				"baseColorFactor":[
					0.13286353647708893,
					0.13286353647708893,
					0.13286353647708893,
					1
				],
				"metallicFactor":0,
				"roughnessFactor":0.699999988079071
			}
		},
		{
			"doubleSided":true,
			"name":"black_plastic_rough",
			"pbrMetallicRoughness":{
				"metallicFactor":0,
				"roughnessFactor":0.5
			}
		},
		{
			"alphaMode":"BLEND",
			"doubleSided":true,
			"extensions":{
				"KHR_materials_transmission":{
					"transmissionFactor":1
				},
				"KHR_materials_ior":{
					"ior":1.4500000476837158
				}
			},
			"name":"glass",
			"pbrMetallicRoughness":{
				"baseColorFactor":[
					0.800000011920929,
					0.800000011920929,
					0.800000011920929,
					1
				],
				"metallicFactor":0,
				"roughnessFactor":0
			}
		},
		{
			"doubleSided":true,
			"name":"brakelights_red",
			"pbrMetallicRoughness":{
				"baseColorFactor":[
					0.8000000715255737,
					0.004307569935917854,
					0,
					1
				],
				"metallicFactor":0,
				"roughnessFactor":0.690034806728363
			}
		}
	],
	"meshes":[
		{
			"name":"Cylinder.007",
			"primitives":[
				{
					"attributes":{
						"POSITION":0,
						"NORMAL":1
					},
					"indices":2,
					"material":0
				},
				{
					"attributes":{
						"POSITION":3,
						"NORMAL":4
					},
					"indices":5,
					"material":1
				},
				{
					"attributes":{
						"POSITION":6,
						"NORMAL":7
					},
					"indices":8,
					"material":2
				},
				{
					"attributes":{
						"POSITION":9,
						"NORMAL":10
					},
					"indices":11,
					"material":3
				}
			]
		}
	],
	"accessors":[
		{
			"bufferView":0,
			"componentType":5126,
			"count":60898,
			"max":[
				4.438704967498779,
				9.183791160583496,
				0.10246731340885162
			],
			"min":[
				-4.438704967498779,
				-10.047674179077148,
				-6.868641376495361
			],
			"type":"VEC3"
		},
		{
			"bufferView":1,
			"componentType":5126,
			"count":60898,
			"type":"VEC3"
		},
		{
			"bufferView":2,
			"componentType":5123,
			"count":92076,
			"type":"SCALAR"
		},
		{
			"bufferView":3,
			"componentType":5126,
			"count":2368,
			"max":[
				2.4692037105560303,
				-7.611287593841553,
				-5.860198020935059
			],
			"min":[
				-2.4692037105560303,
				-8.17950439453125,
				-6.6777262687683105
			],
			"type":"VEC3"
		},
		{
			"bufferView":4,
			"componentType":5126,
			"count":2368,
			"type":"VEC3"
		},
		{
			"bufferView":5,
			"componentType":5123,
			"count":3552,
			"type":"SCALAR"
		},
		{
			"bufferView":6,
			"componentType":5126,
			"count":8160,
			"max":[
				3.369722843170166,
				5.373783111572266,
				-3.9908406734466553
			],
			"min":[
				-3.369722843170166,
				-8.995652198791504,
				-6.764182090759277
			],
			"type":"VEC3"
		},
		{
			"bufferView":7,
			"componentType":5126,
			"count":8160,
			"type":"VEC3"
		},
		{
			"bufferView":8,
			"componentType":5123,
			"count":12240,
			"type":"SCALAR"
		},
		{
			"bufferView":9,
			"componentType":5126,
			"count":1472,
			"max":[
				4.161548614501953,
				-7.76123046875,
				-4.268569469451904
			],
			"min":[
				-4.161548614501953,
				-9.990726470947266,
				-6.686147212982178
			],
			"type":"VEC3"
		},
		{
			"bufferView":10,
			"componentType":5126,
			"count":1472,
			"type":"VEC3"
		},
		{
			"bufferView":11,
			"componentType":5123,
			"count":2208,
			"type":"SCALAR"
		}
	],
	"bufferViews":[
		{
			"buffer":0,
			"byteLength":730776,
			"byteOffset":0,
			"target":34962
		},
		{
			"buffer":0,
			"byteLength":730776,
			"byteOffset":730776,
			"target":34962
		},
		{
			"buffer":0,
			"byteLength":184152,
			"byteOffset":1461552,
			"target":34963
		},
		{
			"buffer":0,
			"byteLength":28416,
			"byteOffset":1645704,
			"target":34962
		},
		{
			"buffer":0,
			"byteLength":28416,
			"byteOffset":1674120,
			"target":34962
		},
		{
			"buffer":0,
			"byteLength":7104,
			"byteOffset":1702536,
			"target":34963
		},
		{
			"buffer":0,
			"byteLength":97920,
			"byteOffset":1709640,
			"target":34962
		},
		{
			"buffer":0,
			"byteLength":97920,
			"byteOffset":1807560,
			"target":34962
		},
		{
			"buffer":0,
			"byteLength":24480,
			"byteOffset":1905480,
			"target":34963
		},
		{
			"buffer":0,
			"byteLength":17664,
			"byteOffset":1929960,
			"target":34962
		},
		{
			"buffer":0,
			"byteLength":17664,
			"byteOffset":1947624,
			"target":34962
		},
		{
			"buffer":0,
			"byteLength":4416,
			"byteOffset":1965288,
			"target":34963
		}
	],
	"buffers":[
		{
			"byteLength":1969704,
			"uri":"data:application/octet-stream;base64,"
		}
	]
}
